<?xml version="1.0" standalone="no"?>
<!DOCTYPE svg PUBLIC "-//W3C//DTD SVG 20010904//EN"
 "http://www.w3.org/TR/2001/REC-SVG-20010904/DTD/svg10.dtd">
<svg version="1.0" xmlns="http://www.w3.org/2000/svg"
 width="51.000000pt" height="51.000000pt" viewBox="0 0 51.000000 51.000000"
 preserveAspectRatio="xMidYMid meet">

<g transform="translate(0.000000,51.000000) scale(0.100000,-0.100000)"
fill="#000000" stroke="none">
<path d="M220 400 l0 -110 -110 0 -110 0 0 -30 0 -30 110 0 110 0 0 -110 0
-110 30 0 30 0 0 110 0 110 110 0 110 0 0 30 0 30 -110 0 -110 0 0 110 0 110
-30 0 -30 0 0 -110z"/>
<path d="M145 484 c-47 -24 -47 -28 -5 -69 l40 -39 0 62 c0 34 -1 62 -2 62 -2
0 -16 -7 -33 -16z"/>
<path d="M320 438 l0 -62 40 39 c22 21 40 40 40 42 0 1 -18 12 -40 23 l-40 20
0 -62z"/>
<path d="M365 400 c-27 -27 -47 -52 -44 -55 3 -2 27 18 54 45 27 27 47 52 44
55 -3 2 -27 -18 -54 -45z"/>
<path d="M105 380 c27 -27 54 -50 59 -50 6 0 -12 23 -39 50 -27 28 -54 50 -59
50 -6 0 12 -22 39 -50z"/>
<path d="M30 370 l-20 -40 62 0 62 0 -39 40 c-21 22 -40 40 -42 40 -1 0 -12
-18 -23 -40z"/>
<path d="M405 370 l-39 -40 61 0 c67 0 72 9 35 58 l-17 22 -40 -40z"/>
<path d="M16 173 c3 -10 13 -28 22 -41 l17 -22 40 40 39 40 -61 0 c-53 0 -61
-2 -57 -17z"/>
<path d="M375 140 c27 -27 54 -50 59 -50 6 0 -12 23 -39 50 -27 28 -54 50 -59
50 -6 0 12 -22 39 -50z"/>
<path d="M405 150 l40 -40 17 22 c37 49 32 58 -35 58 l-61 0 39 -40z"/>
<path d="M125 130 c-27 -27 -46 -52 -43 -55 6 -7 98 84 98 97 0 13 -3 10 -55
-42z"/>
<path d="M136 102 l-37 -39 23 -15 c54 -34 58 -32 58 32 0 33 -1 60 -3 60 -2
0 -20 -17 -41 -38z"/>
<path d="M320 83 l0 -62 29 10 c53 18 54 32 11 74 l-40 39 0 -61z"/>
</g>
</svg>
