<?xml version="1.0" standalone="no"?>
<!DOCTYPE svg PUBLIC "-//W3C//DTD SVG 20010904//EN"
 "http://www.w3.org/TR/2001/REC-SVG-20010904/DTD/svg10.dtd">
<svg version="1.0" xmlns="http://www.w3.org/2000/svg"
 width="51.000000pt" height="51.000000pt" viewBox="0 0 51.000000 51.000000"
 preserveAspectRatio="xMidYMid meet">

<g transform="translate(0.000000,51.000000) scale(0.100000,-0.100000)"
fill="#000000" stroke="none">
<path d="M125 471 c-104 -64 -146 -196 -100 -309 18 -43 106 -132 131 -132 12
0 14 40 14 230 0 127 -3 230 -7 230 -5 0 -21 -8 -38 -19z"/>
<path d="M340 260 c0 -126 4 -230 8 -230 16 0 89 58 109 87 74 106 49 262 -55
340 -24 18 -48 33 -53 33 -5 0 -9 -96 -9 -230z"/>
</g>
</svg>
