<svg width="90" height="17" viewBox="0 0 90 17" fill="none" xmlns="http://www.w3.org/2000/svg">
<path d="M0.882227 13.1113V1.98911H2.94778V11.3636H8.76312V13.1113H0.882227ZM10.2032 13.1113V4.62666H12.1893V13.1113H10.2032ZM11.2042 3.22844C10.8334 3.22844 10.5262 3.11192 10.2826 2.87888C10.0496 2.64585 9.93306 2.36514 9.93306 2.03677C9.93306 1.69781 10.0496 1.41711 10.2826 1.19466C10.5262 0.961624 10.8334 0.845106 11.2042 0.845106C11.5749 0.845106 11.8768 0.956328 12.1098 1.17877C12.3535 1.39062 12.4753 1.66074 12.4753 1.98911C12.4753 2.33866 12.3588 2.63525 12.1257 2.87888C11.8927 3.11192 11.5855 3.22844 11.2042 3.22844ZM19.6104 4.53133C20.2883 4.53133 20.8921 4.66374 21.4217 4.92855C21.9619 5.19337 22.3856 5.60118 22.6928 6.15199C23 6.69222 23.1536 7.39133 23.1536 8.24933V13.1113H21.1675V8.50355C21.1675 7.75148 20.9874 7.19007 20.6273 6.81933C20.2777 6.44859 19.7852 6.26322 19.1496 6.26322C18.6835 6.26322 18.2704 6.35855 17.9103 6.54922C17.5501 6.73988 17.2694 7.02588 17.0682 7.40722C16.8775 7.77796 16.7822 8.24933 16.7822 8.82133V13.1113H14.7961V4.62666H16.6868V6.91466L16.3532 6.21555C16.6498 5.67533 17.0788 5.26222 17.6402 4.97622C18.2122 4.67962 18.8689 4.53133 19.6104 4.53133ZM29.5337 16.305C28.7499 16.305 27.9819 16.1991 27.2299 15.9872C26.4884 15.786 25.8793 15.4894 25.4026 15.0974L26.2924 13.6039C26.6631 13.9111 27.1292 14.1547 27.6906 14.3348C28.2626 14.5254 28.8399 14.6208 29.4225 14.6208C30.3547 14.6208 31.0379 14.4036 31.4722 13.9693C31.9065 13.5456 32.1236 12.9048 32.1236 12.0468V10.5373L32.2825 8.61477L32.219 6.69222V4.62666H34.1097V11.8243C34.1097 13.3603 33.7178 14.4884 32.934 15.2087C32.1501 15.9396 31.0167 16.305 29.5337 16.305ZM29.2795 12.73C28.4745 12.73 27.7436 12.5605 27.0869 12.2216C26.4407 11.872 25.927 11.39 25.5456 10.7757C25.1749 10.1613 24.9895 9.44099 24.9895 8.61477C24.9895 7.79914 25.1749 7.08414 25.5456 6.46977C25.927 5.8554 26.4407 5.37874 27.0869 5.03977C27.7436 4.70081 28.4745 4.53133 29.2795 4.53133C29.9998 4.53133 30.646 4.67433 31.218 4.96033C31.79 5.24633 32.2454 5.69122 32.5844 6.29499C32.934 6.89877 33.1087 7.67203 33.1087 8.61477C33.1087 9.55751 32.934 10.3361 32.5844 10.9504C32.2454 11.5542 31.79 12.0044 31.218 12.301C30.646 12.587 29.9998 12.73 29.2795 12.73ZM29.5814 11.0458C30.0793 11.0458 30.5241 10.9451 30.9161 10.7439C31.308 10.532 31.6099 10.246 31.8217 9.88588C32.0442 9.51514 32.1554 9.09144 32.1554 8.61477C32.1554 8.13811 32.0442 7.7197 31.8217 7.35955C31.6099 6.98881 31.308 6.70811 30.9161 6.51744C30.5241 6.31618 30.0793 6.21555 29.5814 6.21555C29.0836 6.21555 28.6334 6.31618 28.2309 6.51744C27.8389 6.70811 27.5317 6.98881 27.3093 7.35955C27.0974 7.7197 26.9915 8.13811 26.9915 8.61477C26.9915 9.09144 27.0974 9.51514 27.3093 9.88588C27.5317 10.246 27.8389 10.532 28.2309 10.7439C28.6334 10.9451 29.0836 11.0458 29.5814 11.0458ZM40.5342 13.2226C39.6656 13.2226 38.8923 13.0372 38.2144 12.6664C37.5365 12.2851 37.0016 11.7661 36.6096 11.1093C36.2177 10.4526 36.0217 9.70581 36.0217 8.86899C36.0217 8.02159 36.2177 7.27481 36.6096 6.62866C37.0016 5.97192 37.5365 5.45818 38.2144 5.08744C38.8923 4.7167 39.6656 4.53133 40.5342 4.53133C41.4134 4.53133 42.1919 4.7167 42.8699 5.08744C43.5584 5.45818 44.0933 5.96662 44.4746 6.61277C44.8666 7.25892 45.0625 8.01099 45.0625 8.86899C45.0625 9.70581 44.8666 10.4526 44.4746 11.1093C44.0933 11.7661 43.5584 12.2851 42.8699 12.6664C42.1919 13.0372 41.4134 13.2226 40.5342 13.2226ZM40.5342 11.5224C41.0215 11.5224 41.4557 11.4165 41.8371 11.2047C42.2184 10.9928 42.515 10.6856 42.7269 10.2831C42.9493 9.88059 43.0605 9.40922 43.0605 8.86899C43.0605 8.31818 42.9493 7.84681 42.7269 7.45488C42.515 7.05237 42.2184 6.74518 41.8371 6.53333C41.4557 6.32148 41.0267 6.21555 40.5501 6.21555C40.0628 6.21555 39.6285 6.32148 39.2472 6.53333C38.8765 6.74518 38.5799 7.05237 38.3574 7.45488C38.135 7.84681 38.0237 8.31818 38.0237 8.86899C38.0237 9.40922 38.135 9.88059 38.3574 10.2831C38.5799 10.6856 38.8765 10.9928 39.2472 11.2047C39.6285 11.4165 40.0575 11.5224 40.5342 11.5224Z" fill="#7A4DFA"/>
<path d="M46.9617 13.1113V1.32177H48.9479V13.1113H46.9617ZM56.7821 13.1113V11.3953L56.6708 11.0299V8.02688C56.6708 7.44429 56.4961 6.99411 56.1465 6.67633C55.797 6.34796 55.2673 6.18377 54.5576 6.18377C54.081 6.18377 53.6096 6.25792 53.1435 6.40622C52.688 6.55451 52.3014 6.76107 51.9836 7.02588L51.2051 5.57999C51.6606 5.23044 52.2008 4.97092 52.8257 4.80144C53.4613 4.62137 54.118 4.53133 54.796 4.53133C56.0247 4.53133 56.9727 4.82792 57.6401 5.42111C58.318 6.0037 58.657 6.90937 58.657 8.13811V13.1113H56.7821ZM54.1127 13.2226C53.4772 13.2226 52.9211 13.1166 52.4444 12.9048C51.9677 12.6823 51.597 12.3804 51.3322 11.9991C51.078 11.6072 50.9508 11.1676 50.9508 10.6803C50.9508 10.2037 51.0621 9.77466 51.2845 9.39333C51.5176 9.01199 51.8936 8.71011 52.4126 8.48766C52.9317 8.26522 53.6202 8.15399 54.4782 8.15399H56.941V9.47277H54.6212C53.9433 9.47277 53.4878 9.58399 53.2547 9.80644C53.0217 10.0183 52.9052 10.2831 52.9052 10.6009C52.9052 10.961 53.0482 11.247 53.3342 11.4589C53.6202 11.6707 54.0174 11.7767 54.5258 11.7767C55.0131 11.7767 55.4474 11.6654 55.8287 11.443C56.2207 11.2206 56.5014 10.8922 56.6708 10.4579L57.0045 11.6496C56.8138 12.1474 56.4696 12.534 55.9717 12.8094C55.4845 13.0848 54.8648 13.2226 54.1127 13.2226ZM66.0202 4.53133C66.6981 4.53133 67.3019 4.66374 67.8315 4.92855C68.3718 5.19337 68.7955 5.60118 69.1027 6.15199C69.4098 6.69222 69.5634 7.39133 69.5634 8.24933V13.1113H67.5773V8.50355C67.5773 7.75148 67.3973 7.19007 67.0371 6.81933C66.6875 6.44859 66.195 6.26322 65.5594 6.26322C65.0934 6.26322 64.6803 6.35855 64.3201 6.54922C63.96 6.73988 63.6793 7.02588 63.478 7.40722C63.2873 7.77796 63.192 8.24933 63.192 8.82133V13.1113H61.2059V4.62666H63.0967V6.91466L62.763 6.21555C63.0596 5.67533 63.4886 5.26222 64.05 4.97622C64.622 4.67962 65.2787 4.53133 66.0202 4.53133ZM75.6893 13.2226C74.8737 13.2226 74.1375 13.0425 73.4808 12.6823C72.8346 12.3116 72.3262 11.8031 71.9555 11.157C71.5847 10.5108 71.3993 9.74818 71.3993 8.86899C71.3993 7.98981 71.5847 7.22714 71.9555 6.58099C72.3262 5.93485 72.8346 5.4317 73.4808 5.07155C74.1375 4.7114 74.8737 4.53133 75.6893 4.53133C76.3991 4.53133 77.0346 4.69022 77.596 5.00799C78.1574 5.31518 78.6023 5.78655 78.9307 6.42211C79.2591 7.05766 79.4232 7.87329 79.4232 8.86899C79.4232 9.85411 79.2643 10.6697 78.9466 11.3159C78.6288 11.9514 78.1892 12.4281 77.6278 12.7459C77.0664 13.0637 76.4202 13.2226 75.6893 13.2226ZM75.9277 11.5224C76.4043 11.5224 76.8281 11.4165 77.1988 11.2047C77.5801 10.9928 77.882 10.6856 78.1045 10.2831C78.3375 9.88059 78.454 9.40922 78.454 8.86899C78.454 8.31818 78.3375 7.84681 78.1045 7.45488C77.882 7.05237 77.5801 6.74518 77.1988 6.53333C76.8281 6.32148 76.4043 6.21555 75.9277 6.21555C75.451 6.21555 75.022 6.32148 74.6407 6.53333C74.2699 6.74518 73.9681 7.05237 73.735 7.45488C73.5126 7.84681 73.4013 8.31818 73.4013 8.86899C73.4013 9.40922 73.5126 9.88059 73.735 10.2831C73.9681 10.6856 74.2699 10.9928 74.6407 11.2047C75.022 11.4165 75.451 11.5224 75.9277 11.5224ZM78.5017 13.1113V11.1093L78.5811 8.85311L78.4222 6.59688V1.32177H80.3925V13.1113H78.5017ZM85.6282 13.2226C84.9185 13.2226 84.2353 13.1325 83.5786 12.9524C82.9324 12.7618 82.4187 12.534 82.0373 12.2692L82.8 10.7598C83.1813 11.0034 83.6368 11.2047 84.1664 11.3636C84.6961 11.5224 85.2257 11.6019 85.7553 11.6019C86.3803 11.6019 86.8305 11.5171 87.1059 11.3477C87.3919 11.1782 87.5349 10.9504 87.5349 10.6644C87.5349 10.4314 87.4396 10.2566 87.2489 10.1401C87.0582 10.013 86.8093 9.91766 86.5021 9.85411C86.1949 9.79055 85.8507 9.73229 85.4693 9.67933C85.0986 9.62637 84.7226 9.55751 84.3412 9.47277C83.9705 9.37744 83.6315 9.24503 83.3243 9.07555C83.0171 8.89548 82.7682 8.65714 82.5776 8.36055C82.3869 8.06396 82.2916 7.67203 82.2916 7.18477C82.2916 6.64455 82.4451 6.17848 82.7523 5.78655C83.0595 5.38403 83.4885 5.07685 84.0393 4.86499C84.6007 4.64255 85.2628 4.53133 86.0254 4.53133C86.5974 4.53133 87.1747 4.59488 87.7573 4.722C88.3399 4.84911 88.8219 5.02918 89.2032 5.26222L88.4406 6.77166C88.038 6.52803 87.6302 6.36385 87.2171 6.27911C86.8146 6.18377 86.4121 6.13611 86.0096 6.13611C85.4058 6.13611 84.9556 6.22614 84.659 6.40622C84.373 6.58629 84.23 6.81403 84.23 7.08944C84.23 7.34366 84.3253 7.53433 84.516 7.66144C84.7067 7.78855 84.9556 7.88918 85.2628 7.96333C85.57 8.03748 85.9089 8.10103 86.2797 8.15399C86.661 8.19636 87.037 8.26522 87.4078 8.36055C87.7785 8.45588 88.1175 8.58829 88.4247 8.75777C88.7424 8.91666 88.9967 9.1444 89.1873 9.44099C89.378 9.73759 89.4733 10.1242 89.4733 10.6009C89.4733 11.1305 89.3144 11.5913 88.9967 11.9832C88.6895 12.3751 88.2499 12.6823 87.6779 12.9048C87.1059 13.1166 86.4227 13.2226 85.6282 13.2226Z" fill="#F6D524"/>
</svg>
