<?xml version="1.0" standalone="no"?>
<!DOCTYPE svg PUBLIC "-//W3C//DTD SVG 20010904//EN"
 "http://www.w3.org/TR/2001/REC-SVG-20010904/DTD/svg10.dtd">
<svg version="1.0" xmlns="http://www.w3.org/2000/svg"
 width="51.000000pt" height="51.000000pt" viewBox="0 0 51.000000 51.000000"
 preserveAspectRatio="xMidYMid meet">

<g transform="translate(0.000000,51.000000) scale(0.100000,-0.100000)"
fill="#000000" stroke="none">
<path d="M177 496 c-64 -23 -130 -84 -150 -138 -6 -17 9 -18 228 -18 129 0
235 2 235 5 0 19 -36 68 -75 103 -66 58 -157 77 -238 48z"/>
<path d="M39 143 c23 -45 62 -84 111 -109 48 -25 162 -25 210 0 57 30 130 108
130 141 0 3 -106 5 -235 5 l-235 0 19 -37z"/>
</g>
</svg>
