<svg>
<symbol id = 'triangle' xmlns="http://www.w3.org/2000/svg" width="23" height="29" viewBox="0 0 23 29" fill="none">
<path d="M9.72461 0.674805L0.0937355 27.3539L22.2974 28.3082L9.72461 0.674805Z" fill="white"/>
</symbol>
<symbol id = 'notification' xmlns="http://www.w3.org/2000/svg" width="36" height="35" viewBox="0 0 36 35" fill="none">
  <path d="M26.4188 4.12091C26.095 4.12091 25.833 4.37065 25.833 4.67924C25.833 4.98788 26.095 5.23757 26.4188 5.23757C28.48 5.23757 30.1568 6.83567 30.1568 8.80021C30.1568 9.1088 30.4189 9.35854 30.7427 9.35854C31.0665 9.35854 31.3285 9.1088 31.3285 8.80021C31.3285 6.22011 29.126 4.12091 26.4188 4.12091Z" fill="white"/>
  <path d="M4.32422 8.80021C4.32422 9.1088 4.5862 9.35854 4.91004 9.35854C5.23382 9.35854 5.49586 9.1088 5.49586 8.80021C5.49586 6.83567 7.17266 5.23757 9.23387 5.23757C9.55772 5.23757 9.8197 4.98788 9.8197 4.67924C9.8197 4.37065 9.55772 4.12091 9.23387 4.12091C6.52673 4.12091 4.32422 6.22011 4.32422 8.80021Z" fill="white"/>
  <path d="M27.2831 0C26.9592 0 26.6973 0.24974 26.6973 0.558329C26.6973 0.866917 26.9592 1.11666 27.2831 1.11666C31.2517 1.11666 34.4806 4.19344 34.4806 7.97578C34.4806 8.28443 34.7426 8.53411 35.0664 8.53411C35.3902 8.53411 35.6522 8.28443 35.6522 7.97578C35.6522 3.57788 31.8975 0 27.2831 0Z" fill="white"/>
  <path d="M8.9544 0.558329C8.9544 0.24974 8.69237 0 8.36858 0C3.75406 0 0 3.57788 0 7.97578C0 8.28443 0.262038 8.53411 0.585822 8.53411C0.909606 8.53411 1.17164 8.28443 1.17164 7.97578C1.17164 4.19344 4.39993 1.11666 8.36858 1.11666C8.69237 1.11666 8.9544 0.866917 8.9544 0.558329Z" fill="white"/>
  <path d="M29.4212 25.0825C29.3462 24.8688 29.2049 24.6936 29.0333 24.5541C29.0471 24.2139 29.0559 23.8717 29.0559 23.5262C29.0559 15.9218 25.7512 9.48168 21.1857 7.27304C21.2537 7.01029 21.2937 6.73699 21.2937 6.45414C21.2937 4.56844 19.6897 3.03973 17.7112 3.03973C15.7326 3.03973 14.1286 4.56844 14.1286 6.45414C14.1286 6.73699 14.1687 7.01029 14.2367 7.27304C9.67119 9.48168 6.36645 15.9218 6.36645 23.5262C6.36645 23.8717 6.37524 24.2139 6.38906 24.5541C6.21748 24.6936 6.07618 24.8688 6.00119 25.0825L4.30377 29.9213C4.0289 30.7048 4.64085 31.5145 5.50793 31.5145H13.7825C14.2869 33.1285 15.8538 34.3061 17.7112 34.3061C19.5685 34.3061 21.1355 33.1285 21.6399 31.5145H29.9144C30.7815 31.5145 31.3935 30.7048 31.1186 29.9213L29.4212 25.0825ZM14.7772 8.28791L15.6234 7.87855L15.3961 7.00046C15.3468 6.80991 15.3228 6.63118 15.3228 6.45414C15.3228 5.19902 16.3943 4.17789 17.7112 4.17789C19.0281 4.17789 20.0996 5.19902 20.0996 6.45414C20.0996 6.63118 20.0756 6.80991 20.0262 7.00046L19.799 7.87855L20.6452 8.28791C24.8942 10.3435 27.8617 16.6096 27.8617 23.5262C27.8617 23.7598 27.8581 23.9963 27.8511 24.2348H7.57125C7.56422 23.9963 7.56065 23.7598 7.56065 23.5262C7.56065 16.6096 10.5282 10.3435 14.7772 8.28791ZM17.7112 33.1895C16.5124 33.1895 15.4795 32.4997 15.0267 31.5145H20.3957C19.9429 32.4997 18.91 33.1895 17.7112 33.1895ZM29.9941 30.359C29.9648 30.3978 29.9295 30.3978 29.9144 30.3978H21.8119H13.6104H5.50793C5.49287 30.3978 5.45761 30.3978 5.42826 30.359C5.39914 30.3205 5.41021 30.2889 5.41496 30.2754L7.11238 25.4366C7.12579 25.3985 7.16311 25.3729 7.20541 25.3729H28.217C28.2593 25.3729 28.2966 25.3985 28.31 25.4365L30.0074 30.2754C30.0121 30.2889 30.0232 30.3205 29.9941 30.359Z" fill="white"/>
</symbol>
<symbol id = 'profile' xmlns="http://www.w3.org/2000/svg" width="40" height="40" viewBox="0 0 40 40" fill="none">
  <path d="M19.9996 20C21.7962 20 23.5192 19.2863 24.7896 18.0159C26.06 16.7455 26.7738 15.0224 26.7738 13.2258C26.7738 11.4292 26.06 9.70612 24.7896 8.43571C23.5192 7.16531 21.7962 6.4516 19.9996 6.4516C18.2029 6.4516 16.4799 7.16531 15.2095 8.43571C13.9391 9.70612 13.2254 11.4292 13.2254 13.2258C13.2254 15.0224 13.9391 16.7455 15.2095 18.0159C16.4799 19.2863 18.2029 20 19.9996 20ZM24.5157 13.2258C24.5157 14.4235 24.0399 15.5722 23.1929 16.4192C22.346 17.2661 21.1973 17.7419 19.9996 17.7419C18.8018 17.7419 17.6531 17.2661 16.8062 16.4192C15.9592 15.5722 15.4834 14.4235 15.4834 13.2258C15.4834 12.028 15.9592 10.8793 16.8062 10.0324C17.6531 9.18547 18.8018 8.70966 19.9996 8.70966C21.1973 8.70966 22.346 9.18547 23.1929 10.0324C24.0399 10.8793 24.5157 12.028 24.5157 13.2258ZM33.5479 31.2903C33.5479 33.5484 31.2899 33.5484 31.2899 33.5484H8.70924C8.70924 33.5484 6.45117 33.5484 6.45117 31.2903C6.45117 29.0322 8.70924 22.2581 19.9996 22.2581C31.2899 22.2581 33.5479 29.0322 33.5479 31.2903ZM31.2899 31.2813C31.2876 30.7258 30.9421 29.0548 29.4112 27.5239C27.9389 26.0516 25.1683 24.5161 19.9996 24.5161C14.8286 24.5161 12.0602 26.0516 10.5879 27.5239C9.05698 29.0548 8.71375 30.7258 8.70924 31.2813H31.2899Z" fill="white"/>
  <rect x="0.5" y="0.5" width="39" height="39" rx="17.5" stroke="white"/>
</symbol>
<symbol id = 'dropdown_lessons' xmlns="http://www.w3.org/2000/svg" width="20" height="10" viewBox="0 0 20 10" fill="none">
  <path d="M10 9L2 1H18L10 9Z" fill="white" stroke="white"/>
</symbol>
</svg>


