<svg width="31" height="31" viewBox="0 0 31 31" fill="none" xmlns="http://www.w3.org/2000/svg">
<g id="person-svgrepo-com 1">
<path id="Vector" d="M15.5 15.5C16.8924 15.5 18.2277 14.9469 19.2123 13.9623C20.1969 12.9777 20.75 11.6424 20.75 10.25C20.75 8.85761 20.1969 7.52226 19.2123 6.53769C18.2277 5.55312 16.8924 5 15.5 5C14.1076 5 12.7723 5.55312 11.7877 6.53769C10.8031 7.52226 10.25 8.85761 10.25 10.25C10.25 11.6424 10.8031 12.9777 11.7877 13.9623C12.7723 14.9469 14.1076 15.5 15.5 15.5ZM19 10.25C19 11.1783 18.6313 12.0685 17.9749 12.7249C17.3185 13.3813 16.4283 13.75 15.5 13.75C14.5717 13.75 13.6815 13.3813 13.0251 12.7249C12.3687 12.0685 12 11.1783 12 10.25C12 9.32174 12.3687 8.4315 13.0251 7.77513C13.6815 7.11875 14.5717 6.75 15.5 6.75C16.4283 6.75 17.3185 7.11875 17.9749 7.77513C18.6313 8.4315 19 9.32174 19 10.25ZM26 24.25C26 26 24.25 26 24.25 26H6.75C6.75 26 5 26 5 24.25C5 22.5 6.75 17.25 15.5 17.25C24.25 17.25 26 22.5 26 24.25ZM24.25 24.243C24.2482 23.8125 23.9805 22.5175 22.794 21.331C21.653 20.19 19.5057 19 15.5 19C11.4925 19 9.347 20.19 8.206 21.331C7.0195 22.5175 6.7535 23.8125 6.75 24.243H24.25Z" fill="white"/>
<rect x="0.5" y="0.5" width="30" height="30" rx="15" stroke="white"/>
</g>
</svg>
