<svg>
<symbol id = 'search' xmlns="http://www.w3.org/2000/svg" width="23" height="23" viewBox="0 0 23 23" fill="none">
  <g clip-path="url(#clip0_78_5962)">
    <path d="M16.4829 6.1337H11.8829C11.6709 6.1337 11.4996 5.96197 11.4996 5.75038C11.4996 5.5388 11.6709 5.36707 11.8829 5.36707H16.4829C16.6949 5.36707 16.8662 5.5388 16.8662 5.75038C16.8662 5.96197 16.6949 6.1337 16.4829 6.1337Z" fill="#434D55"/>
    <path d="M14.1838 12.267H17.2505C17.4625 12.267 17.6338 12.4387 17.6338 12.6503C17.6338 12.8619 17.4625 13.0336 17.2505 13.0336H14.1838C13.9718 13.0336 13.8005 12.8619 13.8005 12.6503C13.8005 12.4387 13.9718 12.267 14.1838 12.267Z" fill="#434D55"/>
    <path d="M15.3338 10.3501C15.3338 10.1385 15.5051 9.9668 15.7171 9.9668H18.0171C18.2291 9.9668 18.4004 10.1385 18.4004 10.3501C18.4004 10.5617 18.2291 10.7334 18.0171 10.7334H15.7171C15.5051 10.7334 15.3338 10.5617 15.3338 10.3501Z" fill="#434D55"/>
    <path d="M18.0171 8.43375H12.6504C12.4384 8.43375 12.2671 8.26201 12.2671 8.05043C12.2671 7.83885 12.4384 7.66711 12.6504 7.66711H18.0171C18.2291 7.66711 18.4004 7.83885 18.4004 8.05043C18.4004 8.26201 18.2291 8.43375 18.0171 8.43375Z" fill="#434D55"/>
    <path d="M11.1166 12.267H12.6499C12.8619 12.267 13.0332 12.4387 13.0332 12.6503C13.0332 12.8619 12.8619 13.0336 12.6499 13.0336H11.1166C10.9046 13.0336 10.7332 12.8619 10.7332 12.6503C10.7332 12.4387 10.9046 12.267 11.1166 12.267Z" fill="#434D55"/>
    <path d="M5.64569 15.1863C5.79519 15.3358 5.79519 15.5789 5.64569 15.7284L4.83224 16.5418C4.75749 16.617 4.65934 16.6541 4.56123 16.6541C4.46348 16.6541 4.36532 16.6169 4.29021 16.5418C4.14071 16.3923 4.14071 16.1496 4.29021 15.9998L5.10326 15.1863C5.25316 15.0368 5.49583 15.0368 5.64569 15.1863Z" fill="#434D55"/>
    <path d="M0.561952 19.7286L3.24837 17.0426C3.32007 16.9705 3.41741 16.9303 3.51938 16.9303H3.51974C3.62131 16.9303 3.71906 16.971 3.79116 17.043L4.87216 18.1302C5.02166 18.2804 5.0209 18.5227 4.87063 18.6722C4.71996 18.8217 4.4777 18.8213 4.32861 18.6707L3.51862 17.8565L1.10402 20.2707C0.887051 20.488 0.767064 20.7767 0.767064 21.0837C0.767064 21.3908 0.887051 21.6798 1.10402 21.8968C1.55212 22.3449 2.28125 22.3456 2.73011 21.8972L7.27261 17.3547C7.42211 17.2052 7.66477 17.2052 7.81463 17.3547C7.96413 17.5046 7.96413 17.7472 7.81463 17.8971L3.27213 22.4392C2.89879 22.813 2.4081 22.9996 1.91742 22.9996C1.42674 22.9996 0.935342 22.8126 0.561952 22.4392C0.200106 22.077 0.0003829 21.5959 0.0003829 21.0837C0.0003829 20.5719 0.200106 20.0905 0.561952 19.7286Z" fill="#434D55"/>
    <path d="M4.6 9.20049C4.6 4.12782 8.72733 0.000488281 13.8 0.000488281C18.8727 0.000488281 23 4.12782 23 9.20049C23 14.2732 18.8727 18.4005 13.8 18.4005C8.72733 18.4005 4.6 14.2731 4.6 9.20049ZM13.8 17.6338C18.4502 17.6338 22.2333 13.8507 22.2333 9.20049C22.2333 4.55027 18.4502 0.767125 13.8 0.767125C9.14978 0.767125 5.36668 4.55022 5.36668 9.20044C5.36668 13.8507 9.14978 17.6338 13.8 17.6338Z" fill="#434D55"/>
    <path d="M13.8001 1.53369C18.0275 1.53369 21.4668 4.97296 21.4668 9.20037C21.4668 13.4278 18.0275 16.867 13.8001 16.867C9.5727 16.867 6.13343 13.4277 6.13343 9.20033C6.13343 4.97291 9.5727 1.53369 13.8001 1.53369ZM13.8001 16.1004C17.6047 16.1004 20.7001 13.0049 20.7001 9.20037C20.7001 5.3958 17.6047 2.30037 13.8001 2.30037C9.99555 2.30037 6.90012 5.3958 6.90012 9.20037C6.90012 13.0049 9.99555 16.1004 13.8001 16.1004Z" fill="#434D55"/>
    <path d="M9.58333 9.96704H14.1833C14.3953 9.96704 14.5667 10.1388 14.5667 10.3504C14.5667 10.5619 14.3953 10.7337 14.1833 10.7337H9.58333C9.37135 10.7337 9.20001 10.5619 9.20001 10.3504C9.20001 10.1388 9.37135 9.96704 9.58333 9.96704Z" fill="#434D55"/>
    <path d="M9.58336 7.66699H11.1167C11.3287 7.66699 11.5 7.83873 11.5 8.05031C11.5 8.26189 11.3287 8.43363 11.1167 8.43363H9.58336C9.37138 8.43363 9.20004 8.26189 9.20004 8.05031C9.20004 7.83873 9.37138 7.66699 9.58336 7.66699Z" fill="#434D55"/>
  </g>
  <defs>
    <clipPath id="clip0_78_5962">
      <rect width="23" height="23" fill="white" transform="matrix(-1 0 0 1 23 0)"/>
    </clipPath>
  </defs>
  </symbol>

  <symbol id = 'calendar' xmlns="http://www.w3.org/2000/svg" width="24" height="23" viewBox="0 0 24 23" fill="none">
  <g clip-path="url(#clip0_78_5650)">
    <path d="M19.4486 0.948436V0.829887C19.4486 0.372313 19.0763 0 18.6187 0H17.6702C17.2126 0 16.8403 0.372313 16.8403 0.829887V0.948436H13.2836V0.829887C13.2836 0.372313 12.9113 0 12.4537 0H11.5053C11.0477 0 10.6754 0.372313 10.6754 0.829887V0.948436H7.11872V0.829887C7.11868 0.372313 6.74636 0 6.28879 0H5.34035C4.88273 0 4.51042 0.372313 4.51042 0.829887V0.948436H0.479492V23H23.4795V0.948436H19.4486ZM17.5516 0.829887C17.5516 0.765648 17.606 0.711338 17.6702 0.711338H18.6186C18.6829 0.711338 18.7372 0.765648 18.7372 0.829887V2.84535H17.5516V0.829887H17.5516ZM11.3867 0.829887C11.3867 0.765648 11.441 0.711338 11.5053 0.711338H12.4537C12.5179 0.711338 12.5722 0.765648 12.5722 0.829887V2.84535H11.3867V0.829887H11.3867ZM5.22176 0.829887C5.22176 0.765648 5.27607 0.711338 5.34031 0.711338H6.28874C6.35298 0.711338 6.40729 0.765648 6.40729 0.829887V2.84535H5.22171V0.829887H5.22176ZM22.7682 22.2887H1.19083V7.35052H22.7682V22.2887ZM22.7682 6.63918H1.19083V5.45361H20.2785V4.74227H1.19083V1.65977H4.51042V3.55669H7.11868V1.65977H10.6754V3.55669H13.2836V1.65977H16.8403V3.55669H19.4486V1.65977H22.7682V6.63918Z" fill="#808080"/>
    <path d="M11.6237 8.29895V11.3814H2.13916V21.3402H17.0773V18.4949H21.8196V8.29895H11.6237ZM6.88143 20.6288H2.85054V18.4948H6.88147V20.6288H6.88143ZM6.88143 17.7835H2.85054V15.1752H6.88147V17.7835H6.88143ZM6.88143 14.4639H2.85054V12.0927H6.88147V14.4639H6.88143ZM11.6237 20.6288H7.59277V18.4948H11.6237V20.6288ZM11.6237 17.7835H7.59277V15.1752H11.6237V17.7835ZM11.6237 14.4639H7.59277V12.0927H11.6237V14.4639ZM16.366 20.6288H12.335V18.4948H16.366V20.6288ZM16.366 17.7835H12.335V15.1752H16.366V17.7835ZM16.366 14.4639H12.335V12.0927H16.366V14.4639ZM16.366 11.3814H12.335V9.01029H16.366V11.3814ZM21.1082 17.7835H17.0773V15.1752H21.1082V17.7835ZM21.1082 14.4639H17.0773V12.0927H21.1082V14.4639ZM21.1082 11.3814H17.0773V9.01029H21.1082V11.3814Z" fill="#808080"/>
  </g>
  <defs>
    <clipPath id="clip0_78_5650">
      <rect width="23" height="23" fill="white" transform="translate(0.479492)"/>
    </clipPath>
  </defs>
</symbol>

<symbol id = 'dropdown_menu' xmlns="http://www.w3.org/2000/svg" width="20" height="12" viewBox="0 0 20 12" fill="none">
  <path d="M1 1L10 10L19 1" stroke="black" stroke-opacity="0.5" stroke-width="2" stroke-linecap="round"/>
</symbol>

<symbol id = 'book' xmlns="http://www.w3.org/2000/svg" width="23" height="23" viewBox="0 0 23 23" fill="none">
  <path d="M6.6386 2.51038H5.93359V16.5346H6.6386V2.51038Z" fill="#808080"/>
  <path d="M19.2244 0H6.28598C4.90194 0 3.77588 1.12606 3.77588 2.5101V20.4899C3.77588 21.874 4.90189 23 6.28598 23H19.2244V19.0515H18.5194V22.295H6.28593C5.29064 22.295 4.48084 21.4852 4.48084 20.4899C4.48084 19.4945 5.2906 18.6848 6.28593 18.6848H19.2243V0H19.2244ZM18.5193 17.9798H6.63848V17.2535H5.93348V18.0052C5.36697 18.0852 4.86043 18.3544 4.48088 18.7474V2.5101C4.48088 1.63543 5.10633 0.904277 5.93348 0.739863V1.7909H6.63848V0.705004H18.5194V17.9798H18.5193Z" fill="#808080"/>
  <path d="M6.28604 19.7636V19.0586C5.4968 19.0586 4.85474 19.7007 4.85474 20.4899C4.85474 21.2791 5.4968 21.9212 6.28604 21.9212V21.2161C5.88556 21.2161 5.55979 20.8903 5.55979 20.4898C5.55979 20.0894 5.8856 19.7636 6.28604 19.7636Z" fill="#808080"/>
  <path d="M7.35759 19.0515H6.65259V21.9284H7.35759V19.0515Z" fill="#808080"/>
  <path d="M18.1525 19.0585H7.72437V19.7635H18.1525V19.0585Z" fill="#808080"/>
  <path d="M18.1525 20.1372H7.72437V20.8422H18.1525V20.1372Z" fill="#808080"/>
  <path d="M18.1525 21.2163H7.72437V21.9213H18.1525V21.2163Z" fill="#808080"/>
  <path d="M14.557 16.1821H10.6013V16.8871H14.557V16.1821Z" fill="#808080"/>
  <path d="M16.7072 1.79797H8.45068V8.25657H16.7072V1.79797ZM16.0022 7.55152H9.15573V2.50298H16.0022V7.55152H16.0022Z" fill="#808080"/>
  <path d="M15.2759 3.23633H9.88208V3.94133H15.2759V3.23633Z" fill="#808080"/>
  <path d="M13.8377 4.6748H9.88208V5.37981H13.8377V4.6748Z" fill="#808080"/>
  <path d="M13.1184 6.11292H9.88208V6.81792H13.1184V6.11292Z" fill="#808080"/>
</symbol>

<symbol id = 'triangle' xmlns="http://www.w3.org/2000/svg" width="23" height="29" viewBox="0 0 23 29" fill="none">
<path d="M9.72461 0.674805L0.0937355 27.3539L22.2974 28.3082L9.72461 0.674805Z" fill="white"/>
</symbol>

<symbol id = 'notification' xmlns="http://www.w3.org/2000/svg" width="36" height="35" viewBox="0 0 36 35" fill="none">
  <path d="M26.4188 4.12091C26.095 4.12091 25.833 4.37065 25.833 4.67924C25.833 4.98788 26.095 5.23757 26.4188 5.23757C28.48 5.23757 30.1568 6.83567 30.1568 8.80021C30.1568 9.1088 30.4189 9.35854 30.7427 9.35854C31.0665 9.35854 31.3285 9.1088 31.3285 8.80021C31.3285 6.22011 29.126 4.12091 26.4188 4.12091Z" fill="white"/>
  <path d="M4.32422 8.80021C4.32422 9.1088 4.5862 9.35854 4.91004 9.35854C5.23382 9.35854 5.49586 9.1088 5.49586 8.80021C5.49586 6.83567 7.17266 5.23757 9.23387 5.23757C9.55772 5.23757 9.8197 4.98788 9.8197 4.67924C9.8197 4.37065 9.55772 4.12091 9.23387 4.12091C6.52673 4.12091 4.32422 6.22011 4.32422 8.80021Z" fill="white"/>
  <path d="M27.2831 0C26.9592 0 26.6973 0.24974 26.6973 0.558329C26.6973 0.866917 26.9592 1.11666 27.2831 1.11666C31.2517 1.11666 34.4806 4.19344 34.4806 7.97578C34.4806 8.28443 34.7426 8.53411 35.0664 8.53411C35.3902 8.53411 35.6522 8.28443 35.6522 7.97578C35.6522 3.57788 31.8975 0 27.2831 0Z" fill="white"/>
  <path d="M8.9544 0.558329C8.9544 0.24974 8.69237 0 8.36858 0C3.75406 0 0 3.57788 0 7.97578C0 8.28443 0.262038 8.53411 0.585822 8.53411C0.909606 8.53411 1.17164 8.28443 1.17164 7.97578C1.17164 4.19344 4.39993 1.11666 8.36858 1.11666C8.69237 1.11666 8.9544 0.866917 8.9544 0.558329Z" fill="white"/>
  <path d="M29.4212 25.0825C29.3462 24.8688 29.2049 24.6936 29.0333 24.5541C29.0471 24.2139 29.0559 23.8717 29.0559 23.5262C29.0559 15.9218 25.7512 9.48168 21.1857 7.27304C21.2537 7.01029 21.2937 6.73699 21.2937 6.45414C21.2937 4.56844 19.6897 3.03973 17.7112 3.03973C15.7326 3.03973 14.1286 4.56844 14.1286 6.45414C14.1286 6.73699 14.1687 7.01029 14.2367 7.27304C9.67119 9.48168 6.36645 15.9218 6.36645 23.5262C6.36645 23.8717 6.37524 24.2139 6.38906 24.5541C6.21748 24.6936 6.07618 24.8688 6.00119 25.0825L4.30377 29.9213C4.0289 30.7048 4.64085 31.5145 5.50793 31.5145H13.7825C14.2869 33.1285 15.8538 34.3061 17.7112 34.3061C19.5685 34.3061 21.1355 33.1285 21.6399 31.5145H29.9144C30.7815 31.5145 31.3935 30.7048 31.1186 29.9213L29.4212 25.0825ZM14.7772 8.28791L15.6234 7.87855L15.3961 7.00046C15.3468 6.80991 15.3228 6.63118 15.3228 6.45414C15.3228 5.19902 16.3943 4.17789 17.7112 4.17789C19.0281 4.17789 20.0996 5.19902 20.0996 6.45414C20.0996 6.63118 20.0756 6.80991 20.0262 7.00046L19.799 7.87855L20.6452 8.28791C24.8942 10.3435 27.8617 16.6096 27.8617 23.5262C27.8617 23.7598 27.8581 23.9963 27.8511 24.2348H7.57125C7.56422 23.9963 7.56065 23.7598 7.56065 23.5262C7.56065 16.6096 10.5282 10.3435 14.7772 8.28791ZM17.7112 33.1895C16.5124 33.1895 15.4795 32.4997 15.0267 31.5145H20.3957C19.9429 32.4997 18.91 33.1895 17.7112 33.1895ZM29.9941 30.359C29.9648 30.3978 29.9295 30.3978 29.9144 30.3978H21.8119H13.6104H5.50793C5.49287 30.3978 5.45761 30.3978 5.42826 30.359C5.39914 30.3205 5.41021 30.2889 5.41496 30.2754L7.11238 25.4366C7.12579 25.3985 7.16311 25.3729 7.20541 25.3729H28.217C28.2593 25.3729 28.2966 25.3985 28.31 25.4365L30.0074 30.2754C30.0121 30.2889 30.0232 30.3205 29.9941 30.359Z" fill="white"/>
</symbol>

<symbol id = 'profile' xmlns="http://www.w3.org/2000/svg" width="40" height="40" viewBox="0 0 40 40" fill="none">
  <path d="M19.9996 20C21.7962 20 23.5192 19.2863 24.7896 18.0159C26.06 16.7455 26.7738 15.0224 26.7738 13.2258C26.7738 11.4292 26.06 9.70612 24.7896 8.43571C23.5192 7.16531 21.7962 6.4516 19.9996 6.4516C18.2029 6.4516 16.4799 7.16531 15.2095 8.43571C13.9391 9.70612 13.2254 11.4292 13.2254 13.2258C13.2254 15.0224 13.9391 16.7455 15.2095 18.0159C16.4799 19.2863 18.2029 20 19.9996 20ZM24.5157 13.2258C24.5157 14.4235 24.0399 15.5722 23.1929 16.4192C22.346 17.2661 21.1973 17.7419 19.9996 17.7419C18.8018 17.7419 17.6531 17.2661 16.8062 16.4192C15.9592 15.5722 15.4834 14.4235 15.4834 13.2258C15.4834 12.028 15.9592 10.8793 16.8062 10.0324C17.6531 9.18547 18.8018 8.70966 19.9996 8.70966C21.1973 8.70966 22.346 9.18547 23.1929 10.0324C24.0399 10.8793 24.5157 12.028 24.5157 13.2258ZM33.5479 31.2903C33.5479 33.5484 31.2899 33.5484 31.2899 33.5484H8.70924C8.70924 33.5484 6.45117 33.5484 6.45117 31.2903C6.45117 29.0322 8.70924 22.2581 19.9996 22.2581C31.2899 22.2581 33.5479 29.0322 33.5479 31.2903ZM31.2899 31.2813C31.2876 30.7258 30.9421 29.0548 29.4112 27.5239C27.9389 26.0516 25.1683 24.5161 19.9996 24.5161C14.8286 24.5161 12.0602 26.0516 10.5879 27.5239C9.05698 29.0548 8.71375 30.7258 8.70924 31.2813H31.2899Z" fill="white"/>
  <rect x="0.5" y="0.5" width="39" height="39" rx="17.5" stroke="white"/>
</symbol>

<symbol id = 'dropdown_lessons' xmlns="http://www.w3.org/2000/svg" width="20" height="10" viewBox="0 0 20 10" fill="none">
  <path d="M10 9L2 1H18L10 9Z" fill="white" stroke="white"/>
</symbol>

<symbol id = 'view' xmlns="http://www.w3.org/2000/svg" width="55" height="55" viewBox="0 0 55 55" fill="none">
  <rect width="55" height="55" rx="27.5" fill="#71B33D"/>
  <path d="M14.5 26.5L25.5 37.5L44 19" stroke="white" stroke-width="3" stroke-linecap="round"/>
</symbol>

<symbol id = 'arrow' xmlns="http://www.w3.org/2000/svg" width="11" height="10" viewBox="0 0 11 10" fill="none">
  <path d="M10.4991 1.02936C10.5154 0.753695 10.305 0.517078 10.0294 0.500862L5.53713 0.236614C5.26146 0.220398 5.02484 0.430724 5.00863 0.70639C4.99241 0.982055 5.20274 1.21867 5.4784 1.23489L9.4715 1.46978L9.23661 5.46287C9.2204 5.73854 9.43072 5.97516 9.70639 5.99137C9.98206 6.00759 10.2187 5.79726 10.2349 5.5216L10.4991 1.02936ZM1.33218 9.3737L10.3322 1.3737L9.66782 0.626295L0.667818 8.6263L1.33218 9.3737Z" fill="#0060FC"/>
</symbol>

<symbol id = 'fill_grade' xmlns="http://www.w3.org/2000/svg" width="26" height="24" viewBox="0 0 26 24" fill="none">
  <path d="M13 0L15.9187 8.98278H25.3637L17.7225 14.5344L20.6412 23.5172L13 17.9656L5.35879 23.5172L8.27747 14.5344L0.636266 8.98278H10.0813L13 0Z" fill="#F1FF4C"/>
  <path d="M13 0.809018L15.6809 9.06003L15.737 9.23278H15.9187H24.5943L17.5756 14.3322L17.4286 14.439L17.4848 14.6117L20.1657 22.8627L13.1469 17.7633L13 17.6565L12.8531 17.7633L5.83432 22.8627L8.51524 14.6117L8.57137 14.439L8.42442 14.3322L1.40569 9.23278H10.0813H10.263L10.3191 9.06003L13 0.809018Z" stroke="black" stroke-opacity="0.26" stroke-width="0.5"/>
</symbol>

<symbol id = 'empty_grade' xmlns="http://www.w3.org/2000/svg" width="26" height="24" viewBox="0 0 26 24" fill="none">
  <path d="M13 0.809018L15.6809 9.06003L15.737 9.23278H15.9187H24.5943L17.5756 14.3322L17.4286 14.439L17.4848 14.6117L20.1657 22.8627L13.1469 17.7633L13 17.6565L12.8531 17.7633L5.83432 22.8627L8.51524 14.6117L8.57137 14.439L8.42442 14.3322L1.40569 9.23278H10.0813H10.263L10.3191 9.06003L13 0.809018Z" stroke="black" stroke-opacity="0.26" stroke-width="0.5"/>
</symbol>

<symbol id = 'duration' xmlns="http://www.w3.org/2000/svg" width="23" height="23" viewBox="0 0 23 23" fill="none">
  <path d="M15.8125 4.3125H7.1875C5.96562 4.3125 5.03125 3.37813 5.03125 2.15625H17.9688C17.9688 3.37813 17.0344 4.3125 15.8125 4.3125Z" stroke="#F2111E" stroke-width="2" stroke-miterlimit="10" stroke-linecap="round" stroke-linejoin="round"/>
  <path d="M7.1875 18.6875H15.8125C17.0344 18.6875 17.9688 19.6219 17.9688 20.8438H5.03125C5.03125 19.6219 5.96562 18.6875 7.1875 18.6875Z" stroke="#F2111E" stroke-width="2" stroke-miterlimit="10" stroke-linecap="round" stroke-linejoin="round"/>
  <path d="M16.5312 18.6875V15.8125C16.5312 15.3812 16.3156 14.95 15.9562 14.6625L13.2968 12.65C12.5062 12.075 12.5062 10.925 13.2968 10.35L15.9562 8.3375C16.3156 8.05 16.5312 7.61875 16.5312 7.1875V4.3125" stroke="#F2111E" stroke-width="2" stroke-miterlimit="10" stroke-linecap="round" stroke-linejoin="round"/>
  <path d="M6.46875 4.3125V7.1875C6.46875 7.61875 6.68438 8.05 7.04375 8.3375L9.70312 10.35C10.4938 10.925 10.4938 12.075 9.70312 12.65L7.04375 14.6625C6.68438 14.95 6.46875 15.3812 6.46875 15.8125V18.6875" stroke="#F2111E" stroke-width="2" stroke-miterlimit="10" stroke-linecap="round" stroke-linejoin="round"/>
  <path d="M7.90625 18.6875L11.5 15.0938L15.0938 18.6875H7.90625Z" stroke="#F2111E" stroke-width="2" stroke-miterlimit="10" stroke-linecap="round" stroke-linejoin="round"/>
  <path d="M11.5 8.625L9.34375 7.1875H13.6562L11.5 8.625Z" stroke="#F2111E" stroke-width="2" stroke-miterlimit="10" stroke-linecap="round" stroke-linejoin="round"/>
</symbol>

<symbol id = 'level' xmlns="http://www.w3.org/2000/svg" width="23" height="23" viewBox="0 0 23 23" fill="none">
  <g clip-path="url(#clip0_76_625)">
    <path d="M16.5312 2.875L12.9375 5.57031V10.2422L10.7812 8.625L7.1875 11.3203V15.9922L5.03125 14.375L1.4375 17.0703V21.5625H2.875V17.7891L5.03125 16.1719L7.1875 17.7891V21.5625H8.625V12.0391L10.7812 10.4219L12.9375 12.0391V21.5625H14.375V6.28906L16.5312 4.67188L18.6875 6.28906V21.5625H20.125V5.57031L16.5312 2.875Z" fill="black" fill-opacity="0.5"/>
  </g>
  <defs>
    <clipPath id="clip0_76_625">
      <rect width="23" height="23" fill="white"/>
    </clipPath>
  </defs>
</symbol>

<symbol id = 'time' xmlns="http://www.w3.org/2000/svg" width="23" height="23" viewBox="0 0 23 23" fill="none">
  <path d="M11.5001 21.0833C16.7928 21.0833 21.0834 16.7927 21.0834 11.5C21.0834 6.20723 16.7928 1.91663 11.5001 1.91663C6.20735 1.91663 1.91675 6.20723 1.91675 11.5C1.91675 16.7927 6.20735 21.0833 11.5001 21.0833Z" stroke="#808080" stroke-linecap="square"/>
  <path d="M11.5 4.79163V11.5L15.3333 15.3333" stroke="#808080" stroke-linecap="square"/>
</symbol>

<symbol id = 'cancel'  xmlns="http://www.w3.org/2000/svg" width="55" height="55" viewBox="0 0 55 55" fill="none">
  <rect width="55" height="55" rx="27.5" fill="#EC0404"/>
  <path d="M17 17L37 37" stroke="white" stroke-width="2" stroke-linecap="round"/>
  <path d="M37 17L17 37" stroke="white" stroke-width="2" stroke-linecap="round"/>
</svg>
</svg>


