<svg width="138" height="33" viewBox="0 0 138 33" fill="none" xmlns="http://www.w3.org/2000/svg">
<mask id="mask0_1_15" style="mask-type:luminance" maskUnits="userSpaceOnUse" x="-60" y="-7" width="480" height="2822">
<path d="M420 -7H-60V2815H420V-7Z" fill="white"/>
</mask>
<g mask="url(#mask0_1_15)">
<path d="M420 -7H-60V2815H420V-7Z" fill="white"/>
<path d="M420 -7H-60V55H420V-7Z" fill="#0060FC"/>
<path d="M68.75 33C106.72 33 137.5 25.6127 137.5 16.5C137.5 7.3873 106.72 0 68.75 0C30.7804 0 0 7.3873 0 16.5C0 25.6127 30.7804 33 68.75 33Z" fill="white"/>
<path d="M22.8822 21.1111V9.98886H24.9478V19.3633H30.7631V21.1111H22.8822ZM32.2032 21.1111V12.6264H34.1893V21.1111H32.2032ZM33.2042 11.2282C32.8334 11.2282 32.5262 11.1117 32.2826 10.8786C32.0496 10.6456 31.9331 10.3649 31.9331 10.0365C31.9331 9.69757 32.0496 9.41686 32.2826 9.19442C32.5262 8.96138 32.8334 8.84486 33.2042 8.84486C33.5749 8.84486 33.8768 8.95608 34.1098 9.17853C34.3535 9.39038 34.4753 9.66049 34.4753 9.98886C34.4753 10.3384 34.3588 10.635 34.1257 10.8786C33.8927 11.1117 33.5855 11.2282 33.2042 11.2282ZM41.6104 12.5311C42.2883 12.5311 42.8921 12.6635 43.4217 12.9283C43.9619 13.1931 44.3856 13.6009 44.6928 14.1518C45 14.692 45.1536 15.3911 45.1536 16.2491V21.1111H43.1675V16.5033C43.1675 15.7512 42.9874 15.1898 42.6273 14.8191C42.2777 14.4483 41.7852 14.263 41.1496 14.263C40.6835 14.263 40.2704 14.3583 39.9103 14.549C39.5501 14.7396 39.2694 15.0256 39.0682 15.407C38.8775 15.7777 38.7822 16.2491 38.7822 16.8211V21.1111H36.7961V12.6264H38.6868V14.9144L38.3532 14.2153C38.6498 13.6751 39.0788 13.262 39.6402 12.976C40.2122 12.6794 40.8689 12.5311 41.6104 12.5311ZM51.5337 24.3048C50.7499 24.3048 49.9819 24.1988 49.2299 23.987C48.4884 23.7857 47.8793 23.4891 47.4026 23.0972L48.2924 21.6036C48.6631 21.9108 49.1292 22.1545 49.6906 22.3345C50.2626 22.5252 50.8399 22.6205 51.4225 22.6205C52.3547 22.6205 53.0379 22.4034 53.4722 21.9691C53.9065 21.5454 54.1236 20.9045 54.1236 20.0465V18.5371L54.2825 16.6145L54.219 14.692V12.6264H56.1097V19.8241C56.1097 21.36 55.7178 22.4881 54.934 23.2084C54.1501 23.9393 53.0167 24.3048 51.5337 24.3048ZM51.2795 20.7298C50.4745 20.7298 49.7436 20.5603 49.0869 20.2213C48.4407 19.8718 47.927 19.3898 47.5456 18.7754C47.1749 18.161 46.9895 17.4408 46.9895 16.6145C46.9895 15.7989 47.1749 15.0839 47.5456 14.4695C47.927 13.8552 48.4407 13.3785 49.0869 13.0395C49.7436 12.7006 50.4745 12.5311 51.2795 12.5311C51.9998 12.5311 52.646 12.6741 53.218 12.9601C53.79 13.2461 54.2454 13.691 54.5844 14.2948C54.934 14.8985 55.1087 15.6718 55.1087 16.6145C55.1087 17.5573 54.934 18.3358 54.5844 18.9502C54.2454 19.554 53.79 20.0042 53.218 20.3008C52.646 20.5868 51.9998 20.7298 51.2795 20.7298ZM51.5814 19.0455C52.0793 19.0455 52.5241 18.9449 52.9161 18.7436C53.308 18.5318 53.6099 18.2458 53.8217 17.8856C54.0442 17.5149 54.1554 17.0912 54.1554 16.6145C54.1554 16.1379 54.0442 15.7195 53.8217 15.3593C53.6099 14.9886 53.308 14.7079 52.9161 14.5172C52.5241 14.3159 52.0793 14.2153 51.5814 14.2153C51.0836 14.2153 50.6334 14.3159 50.2309 14.5172C49.8389 14.7079 49.5317 14.9886 49.3093 15.3593C49.0974 15.7195 48.9915 16.1379 48.9915 16.6145C48.9915 17.0912 49.0974 17.5149 49.3093 17.8856C49.5317 18.2458 49.8389 18.5318 50.2309 18.7436C50.6334 18.9449 51.0836 19.0455 51.5814 19.0455ZM62.5342 21.2223C61.6656 21.2223 60.8923 21.0369 60.2144 20.6662C59.5365 20.2849 59.0016 19.7658 58.6096 19.1091C58.2177 18.4523 58.0217 17.7056 58.0217 16.8688C58.0217 16.0213 58.2177 15.2746 58.6096 14.6284C59.0016 13.9717 59.5365 13.4579 60.2144 13.0872C60.8923 12.7165 61.6656 12.5311 62.5342 12.5311C63.4134 12.5311 64.1919 12.7165 64.8699 13.0872C65.5584 13.4579 66.0933 13.9664 66.4746 14.6125C66.8666 15.2587 67.0625 16.0108 67.0625 16.8688C67.0625 17.7056 66.8666 18.4523 66.4746 19.1091C66.0933 19.7658 65.5584 20.2849 64.8699 20.6662C64.1919 21.0369 63.4134 21.2223 62.5342 21.2223ZM62.5342 19.5222C63.0215 19.5222 63.4557 19.4163 63.8371 19.2044C64.2184 18.9926 64.515 18.6854 64.7269 18.2829C64.9493 17.8803 65.0605 17.409 65.0605 16.8688C65.0605 16.3179 64.9493 15.8466 64.7269 15.4546C64.515 15.0521 64.2184 14.7449 63.8371 14.5331C63.4557 14.3212 63.0267 14.2153 62.5501 14.2153C62.0628 14.2153 61.6285 14.3212 61.2472 14.5331C60.8765 14.7449 60.5799 15.0521 60.3574 15.4546C60.135 15.8466 60.0237 16.3179 60.0237 16.8688C60.0237 17.409 60.135 17.8803 60.3574 18.2829C60.5799 18.6854 60.8765 18.9926 61.2472 19.2044C61.6285 19.4163 62.0575 19.5222 62.5342 19.5222Z" fill="#7A4DFA"/>
<path d="M68.9617 21.1111V9.32153H70.9479V21.1111H68.9617ZM78.7821 21.1111V19.3951L78.6708 19.0296V16.0266C78.6708 15.444 78.4961 14.9939 78.1465 14.6761C77.797 14.3477 77.2673 14.1835 76.5576 14.1835C76.081 14.1835 75.6096 14.2577 75.1435 14.406C74.688 14.5543 74.3014 14.7608 73.9836 15.0256L73.2051 13.5798C73.6606 13.2302 74.2008 12.9707 74.8257 12.8012C75.4613 12.6211 76.118 12.5311 76.796 12.5311C78.0247 12.5311 78.9727 12.8277 79.6401 13.4209C80.318 14.0035 80.657 14.9091 80.657 16.1379V21.1111H78.7821ZM76.1127 21.2223C75.4772 21.2223 74.9211 21.1164 74.4444 20.9045C73.9677 20.6821 73.597 20.3802 73.3322 19.9989C73.078 19.6069 72.9508 19.1673 72.9508 18.6801C72.9508 18.2034 73.0621 17.7744 73.2845 17.3931C73.5176 17.0118 73.8936 16.7099 74.4126 16.4874C74.9317 16.265 75.6202 16.1538 76.4782 16.1538H78.941V17.4725H76.6212C75.9433 17.4725 75.4878 17.5838 75.2547 17.8062C75.0217 18.018 74.9052 18.2829 74.9052 18.6006C74.9052 18.9608 75.0482 19.2468 75.3342 19.4586C75.6202 19.6705 76.0174 19.7764 76.5258 19.7764C77.0131 19.7764 77.4474 19.6652 77.8287 19.4428C78.2207 19.2203 78.5014 18.8919 78.6708 18.4576L79.0045 19.6493C78.8138 20.1472 78.4696 20.5338 77.9717 20.8092C77.4845 21.0846 76.8648 21.2223 76.1127 21.2223ZM88.0202 12.5311C88.6981 12.5311 89.3019 12.6635 89.8315 12.9283C90.3718 13.1931 90.7955 13.6009 91.1027 14.1518C91.4098 14.692 91.5634 15.3911 91.5634 16.2491V21.1111H89.5773V16.5033C89.5773 15.7512 89.3973 15.1898 89.0371 14.8191C88.6875 14.4483 88.195 14.263 87.5594 14.263C87.0934 14.263 86.6803 14.3583 86.3201 14.549C85.96 14.7396 85.6793 15.0256 85.478 15.407C85.2873 15.7777 85.192 16.2491 85.192 16.8211V21.1111H83.2059V12.6264H85.0967V14.9144L84.763 14.2153C85.0596 13.6751 85.4886 13.262 86.05 12.976C86.622 12.6794 87.2787 12.5311 88.0202 12.5311ZM97.6893 21.2223C96.8737 21.2223 96.1375 21.0422 95.4808 20.6821C94.8346 20.3113 94.3262 19.8029 93.9555 19.1568C93.5847 18.5106 93.3993 17.7479 93.3993 16.8688C93.3993 15.9896 93.5847 15.2269 93.9555 14.5808C94.3262 13.9346 94.8346 13.4315 95.4808 13.0713C96.1375 12.7112 96.8737 12.5311 97.6893 12.5311C98.3991 12.5311 99.0346 12.69 99.596 13.0078C100.157 13.3149 100.602 13.7863 100.931 14.4219C101.259 15.0574 101.423 15.873 101.423 16.8688C101.423 17.8539 101.264 18.6695 100.947 19.3156C100.629 19.9512 100.189 20.4279 99.6278 20.7456C99.0664 21.0634 98.4202 21.2223 97.6893 21.2223ZM97.9277 19.5222C98.4043 19.5222 98.8281 19.4163 99.1988 19.2044C99.5801 18.9926 99.882 18.6854 100.104 18.2829C100.337 17.8803 100.454 17.409 100.454 16.8688C100.454 16.3179 100.337 15.8466 100.104 15.4546C99.882 15.0521 99.5801 14.7449 99.1988 14.5331C98.8281 14.3212 98.4043 14.2153 97.9277 14.2153C97.451 14.2153 97.022 14.3212 96.6407 14.5331C96.2699 14.7449 95.9681 15.0521 95.735 15.4546C95.5126 15.8466 95.4013 16.3179 95.4013 16.8688C95.4013 17.409 95.5126 17.8803 95.735 18.2829C95.9681 18.6854 96.2699 18.9926 96.6407 19.2044C97.022 19.4163 97.451 19.5222 97.9277 19.5222ZM100.502 21.1111V19.1091L100.581 16.8529L100.422 14.5966V9.32153H102.392V21.1111H100.502ZM107.628 21.2223C106.919 21.2223 106.235 21.1323 105.579 20.9522C104.932 20.7615 104.419 20.5338 104.037 20.269L104.8 18.7595C105.181 19.0032 105.637 19.2044 106.166 19.3633C106.696 19.5222 107.226 19.6016 107.755 19.6016C108.38 19.6016 108.83 19.5169 109.106 19.3474C109.392 19.1779 109.535 18.9502 109.535 18.6642C109.535 18.4312 109.44 18.2564 109.249 18.1399C109.058 18.0128 108.809 17.9174 108.502 17.8539C108.195 17.7903 107.851 17.732 107.469 17.6791C107.099 17.6261 106.723 17.5573 106.341 17.4725C105.97 17.3772 105.632 17.2448 105.324 17.0753C105.017 16.8952 104.768 16.6569 104.578 16.3603C104.387 16.0637 104.292 15.6718 104.292 15.1845C104.292 14.6443 104.445 14.1782 104.752 13.7863C105.06 13.3838 105.489 13.0766 106.039 12.8648C106.601 12.6423 107.263 12.5311 108.025 12.5311C108.597 12.5311 109.175 12.5946 109.757 12.7218C110.34 12.8489 110.822 13.0289 111.203 13.262L110.441 14.7714C110.038 14.5278 109.63 14.3636 109.217 14.2789C108.815 14.1835 108.412 14.1359 108.01 14.1359C107.406 14.1359 106.956 14.2259 106.659 14.406C106.373 14.586 106.23 14.8138 106.23 15.0892C106.23 15.3434 106.325 15.5341 106.516 15.6612C106.707 15.7883 106.956 15.8889 107.263 15.9631C107.57 16.0372 107.909 16.1008 108.28 16.1538C108.661 16.1961 109.037 16.265 109.408 16.3603C109.779 16.4556 110.117 16.588 110.425 16.7575C110.742 16.9164 110.997 17.1442 111.187 17.4408C111.378 17.7373 111.473 18.124 111.473 18.6006C111.473 19.1303 111.314 19.591 110.997 19.983C110.689 20.3749 110.25 20.6821 109.678 20.9045C109.106 21.1164 108.423 21.2223 107.628 21.2223Z" fill="#F6D524"/>
</g>
</svg>
